<svg xmlns="http://www.w3.org/2000/svg" viewBox="0 0 200 200" width="200" height="200">
  <circle cx="100" cy="100" r="100" fill="#FFD54F"/>
  <ellipse cx="100" cy="175" rx="52" ry="38" fill="#7B6CF6"/>
  <path d="M83 148 L100 162 L88 175 L70 165 Z" fill="#6B5CE7"/>
  <path d="M117 148 L100 162 L112 175 L130 165 Z" fill="#6B5CE7"/>
  <rect x="91" y="130" width="18" height="24" rx="6" fill="#F5C49A"/>
  <ellipse cx="100" cy="108" rx="36" ry="40" fill="#F5C49A"/>
  <ellipse cx="64" cy="110" rx="7" ry="9" fill="#F5C49A"/>
  <ellipse cx="136" cy="110" rx="7" ry="9" fill="#F5C49A"/>
  <path d="M68 100 Q70 62 100 58 Q130 62 132 100 Q128 78 100 74 Q72 78 68 100Z" fill="#2C2438"/>
  <path d="M68 100 Q64 90 66 82 Q70 72 78 70 Q72 80 70 95Z" fill="#2C2438"/>
  <path d="M132 100 Q136 90 134 82 Q130 72 122 70 Q128 80 130 95Z" fill="#2C2438"/>
  <ellipse cx="86" cy="108" rx="6" ry="5.5" fill="white"/>
  <circle cx="87" cy="108" r="3.5" fill="#3D2B1F"/>
  <circle cx="88" cy="106.5" r="1.2" fill="white"/>
  <ellipse cx="114" cy="108" rx="6" ry="5.5" fill="white"/>
  <circle cx="113" cy="108" r="3.5" fill="#3D2B1F"/>
  <circle cx="114" cy="106.5" r="1.2" fill="white"/>
  <path d="M80 100 Q86 97 92 100" fill="none" stroke="#2C2438" stroke-width="2.5" stroke-linecap="round"/>
  <path d="M108 100 Q114 97 120 100" fill="none" stroke="#2C2438" stroke-width="2.5" stroke-linecap="round"/>
  <path d="M97 116 Q100 122 103 116" fill="none" stroke="#D4956A" stroke-width="1.8" stroke-linecap="round"/>
  <path d="M90 128 Q100 135 110 128" fill="none" stroke="#C47A5A" stroke-width="2" stroke-linecap="round"/>
</svg>
